<svg width="400" height="240" viewBox="0 0 400 240" fill="none" xmlns="http://www.w3.org/2000/svg">
<g clip-path="url(#clip0_50_1764)">
<mask id="mask0_50_1764" style="mask-type:alpha" maskUnits="userSpaceOnUse" x="139" y="121" width="56" height="56">
<circle cx="167" cy="149" r="28" fill="black"/>
</mask>
<g mask="url(#mask0_50_1764)">
<g filter="url(#filter0_dd_50_1764)">
<rect x="139" y="121" width="56" height="56" fill="#8E24F8"/>
<rect x="139" y="121" width="56" height="56" fill="white" fill-opacity="0.64" style="mix-blend-mode:hard-light"/>
</g>
<path fill-rule="evenodd" clip-rule="evenodd" d="M178.774 134.739C181 134.492 182.113 134.368 182.964 134.71C183.116 134.771 183.263 134.842 183.403 134.923L179.073 132.423C178.933 132.342 178.786 132.271 178.634 132.21C177.783 131.868 176.67 131.992 174.443 132.239L174.443 132.239L155.361 134.36L155.361 134.36C153.134 134.607 152.021 134.731 151.171 135.261C150.423 135.728 149.814 136.407 149.433 137.202C149 138.106 149 139.226 149 141.466L153.33 143.966C153.33 141.726 153.33 140.606 153.763 139.702C154.145 138.907 154.753 138.228 155.501 137.761C156.351 137.231 157.464 137.107 159.691 136.86L159.691 136.86L178.774 134.739ZM149 156.666V141.466L153.33 143.966V159.166C153.33 161.407 153.33 162.527 153.763 163.334C153.988 163.753 154.293 164.115 154.658 164.402L155.501 164.889C155.348 164.828 155.202 164.757 155.061 164.676L155.06 164.675L150.731 162.176C150.184 161.86 149.737 161.4 149.433 160.834C149 160.027 149 158.907 149 156.666Z" fill="black" fill-opacity="0.85"/>
<path d="M153.33 143.966C153.33 141.726 153.33 140.606 153.763 139.702C154.145 138.907 154.753 138.228 155.501 137.761C156.351 137.231 157.464 137.107 159.691 136.86L178.774 134.739C181 134.492 182.113 134.368 182.964 134.71C183.712 135.01 184.32 135.554 184.701 136.265C185.134 137.072 185.134 138.192 185.134 140.433V155.633C185.134 157.873 185.134 158.993 184.701 159.897C184.32 160.692 183.712 161.371 182.964 161.838C182.113 162.368 181 162.492 178.774 162.739L159.691 164.86C157.464 165.107 156.351 165.231 155.501 164.889C154.753 164.589 154.145 164.044 153.763 163.334C153.33 162.527 153.33 161.407 153.33 159.166V143.966Z" fill="#8E24F8"/>
<g opacity="0.15">
<path d="M155.815 146.49C155.815 145.37 155.815 144.81 156.031 144.358C156.222 143.961 156.526 143.621 156.9 143.388C157.325 143.122 157.882 143.061 158.995 142.937L179.469 140.662C180.583 140.538 181.139 140.476 181.564 140.647C181.938 140.797 182.242 141.07 182.433 141.425C182.65 141.828 182.65 142.388 182.65 143.509V153.109C182.65 154.229 182.65 154.789 182.433 155.241C182.242 155.638 181.938 155.978 181.564 156.211C181.139 156.476 180.583 156.538 179.469 156.662L158.995 158.937C157.882 159.061 157.325 159.122 156.9 158.952C156.526 158.801 156.222 158.529 156.031 158.174C155.815 157.77 155.815 157.21 155.815 156.09V146.49Z" fill="#8E24F8"/>
<path d="M155.815 146.49C155.815 145.37 155.815 144.81 156.031 144.358C156.222 143.961 156.526 143.621 156.9 143.388C157.325 143.122 157.882 143.061 158.995 142.937L179.469 140.662C180.583 140.538 181.139 140.476 181.564 140.647C181.938 140.797 182.242 141.07 182.433 141.425C182.65 141.828 182.65 142.388 182.65 143.509V153.109C182.65 154.229 182.65 154.789 182.433 155.241C182.242 155.638 181.938 155.978 181.564 156.211C181.139 156.476 180.583 156.538 179.469 156.662L158.995 158.937C157.882 159.061 157.325 159.122 156.9 158.952C156.526 158.801 156.222 158.529 156.031 158.174C155.815 157.77 155.815 157.21 155.815 156.09V146.49Z" fill="white"/>
</g>
<path d="M158.3 143.214C158.3 142.094 158.3 141.534 158.516 141.082C158.707 140.685 159.011 140.345 159.385 140.112C159.81 139.846 160.367 139.784 161.48 139.661L176.985 137.938C178.098 137.814 178.654 137.753 179.08 137.923C179.454 138.073 179.758 138.346 179.948 138.701C180.165 139.105 180.165 139.665 180.165 140.785V156.385C180.165 157.505 180.165 158.065 179.948 158.517C179.758 158.914 179.454 159.254 179.08 159.487C178.654 159.753 178.098 159.814 176.985 159.938L161.48 161.661C160.367 161.784 159.81 161.846 159.385 161.676C159.011 161.525 158.707 161.253 158.516 160.898C158.3 160.494 158.3 159.934 158.3 158.814V143.214Z" fill="#8E24F8"/>
<path d="M158.3 143.214C158.3 142.094 158.3 141.534 158.516 141.082C158.707 140.685 159.011 140.345 159.385 140.112C159.81 139.846 160.367 139.784 161.48 139.661L176.985 137.938C178.098 137.814 178.654 137.753 179.08 137.923C179.454 138.073 179.758 138.346 179.948 138.701C180.165 139.105 180.165 139.665 180.165 140.785V156.385C180.165 157.505 180.165 158.065 179.948 158.517C179.758 158.914 179.454 159.254 179.08 159.487C178.654 159.753 178.098 159.814 176.985 159.938L161.48 161.661C160.367 161.784 159.81 161.846 159.385 161.676C159.011 161.525 158.707 161.253 158.516 160.898C158.3 160.494 158.3 159.934 158.3 158.814V143.214Z" fill="white" fill-opacity="0.35"/>
<path d="M162.275 144.572C162.275 144.02 162.72 143.523 163.269 143.462L167.245 143.02C167.793 142.959 168.238 143.358 168.238 143.91V147.91C168.238 148.462 167.793 148.959 167.245 149.02L163.269 149.462C162.72 149.523 162.275 149.125 162.275 148.572V144.572Z" fill="white"/>
<path d="M162.275 151.572L176.189 150.026V152.026L162.275 153.572V151.572Z" fill="white"/>
<path d="M176.189 154.026L162.275 155.572V157.572L176.189 156.026V154.026Z" fill="white"/>
<g style="mix-blend-mode:overlay" opacity="0.25">
<rect x="139" y="121" width="56" height="56" fill="url(#paint0_linear_50_1764)"/>
</g>
</g>
</g>
<g clip-path="url(#clip1_50_1764)">
<mask id="mask1_50_1764" style="mask-type:alpha" maskUnits="userSpaceOnUse" x="205" y="121" width="56" height="56">
<circle cx="233" cy="149" r="28" fill="black"/>
</mask>
<g mask="url(#mask1_50_1764)">
<g filter="url(#filter1_dd_50_1764)">
<rect x="205" y="121" width="56" height="56" fill="#0066FF"/>
<rect x="205" y="121" width="56" height="56" fill="white" fill-opacity="0.64" style="mix-blend-mode:hard-light"/>
</g>
<path d="M249.403 134.923C249.263 134.842 249.116 134.771 248.964 134.71L244.634 132.21C244.786 132.271 244.933 132.342 245.073 132.423L249.403 134.923Z" fill="#0066FF"/>
<path d="M249.403 134.923C249.263 134.842 249.116 134.771 248.964 134.71L244.634 132.21C244.786 132.271 244.933 132.342 245.073 132.423L249.403 134.923Z" fill="black" fill-opacity="0.85"/>
<path d="M244.774 134.739L240.443 132.239C242.67 131.992 243.783 131.868 244.634 132.21L248.964 134.71C248.113 134.368 247 134.492 244.774 134.739Z" fill="#0066FF"/>
<path d="M244.774 134.739L240.443 132.239C242.67 131.992 243.783 131.868 244.634 132.21L248.964 134.71C248.113 134.368 247 134.492 244.774 134.739Z" fill="black" fill-opacity="0.85"/>
<path d="M221.061 164.676C221.202 164.757 221.348 164.828 221.501 164.889L217.171 162.389C217.018 162.328 216.871 162.257 216.731 162.176L221.061 164.676Z" fill="#0066FF"/>
<path d="M221.061 164.676C221.202 164.757 221.348 164.828 221.501 164.889L217.171 162.389C217.018 162.328 216.871 162.257 216.731 162.176L221.061 164.676Z" fill="black" fill-opacity="0.85"/>
<path d="M219.763 163.334C220.067 163.899 220.513 164.359 221.06 164.675L216.731 162.176C216.184 161.86 215.737 161.4 215.433 160.834L219.763 163.334Z" fill="#0066FF"/>
<path d="M219.763 163.334C220.067 163.899 220.513 164.359 221.06 164.675L216.731 162.176C216.184 161.86 215.737 161.4 215.433 160.834L219.763 163.334Z" fill="black" fill-opacity="0.85"/>
<path d="M244.774 134.739L225.691 136.86L221.361 134.36L240.443 132.239L244.774 134.739Z" fill="#0066FF"/>
<path d="M244.774 134.739L225.691 136.86L221.361 134.36L240.443 132.239L244.774 134.739Z" fill="black" fill-opacity="0.85"/>
<path d="M219.33 159.166L215 156.666C215 158.907 215 160.027 215.433 160.834L219.763 163.334C219.33 162.527 219.33 161.407 219.33 159.166Z" fill="#0066FF"/>
<path d="M219.33 159.166L215 156.666C215 158.907 215 160.027 215.433 160.834L219.763 163.334C219.33 162.527 219.33 161.407 219.33 159.166Z" fill="black" fill-opacity="0.85"/>
<path d="M219.33 143.966V159.166L215 156.666V141.466L219.33 143.966Z" fill="#0066FF"/>
<path d="M219.33 143.966V159.166L215 156.666V141.466L219.33 143.966Z" fill="black" fill-opacity="0.85"/>
<path d="M221.501 137.761C222.351 137.231 223.464 137.107 225.691 136.86L221.361 134.36C219.134 134.607 218.021 134.731 217.171 135.261L221.501 137.761Z" fill="#0066FF"/>
<path d="M221.501 137.761C222.351 137.231 223.464 137.107 225.691 136.86L221.361 134.36C219.134 134.607 218.021 134.731 217.171 135.261L221.501 137.761Z" fill="black" fill-opacity="0.85"/>
<path d="M219.763 139.702C219.33 140.606 219.33 141.726 219.33 143.966L215 141.466C215 139.226 215 138.106 215.433 137.202L219.763 139.702Z" fill="#0066FF"/>
<path d="M219.763 139.702C219.33 140.606 219.33 141.726 219.33 143.966L215 141.466C215 139.226 215 138.106 215.433 137.202L219.763 139.702Z" fill="black" fill-opacity="0.85"/>
<path d="M219.763 139.702C220.145 138.907 220.753 138.228 221.501 137.761L217.171 135.261C216.423 135.728 215.814 136.407 215.433 137.202L219.763 139.702Z" fill="#0066FF"/>
<path d="M219.763 139.702C220.145 138.907 220.753 138.228 221.501 137.761L217.171 135.261C216.423 135.728 215.814 136.407 215.433 137.202L219.763 139.702Z" fill="black" fill-opacity="0.85"/>
<path d="M219.33 143.966C219.33 141.726 219.33 140.606 219.763 139.702C220.145 138.907 220.753 138.228 221.501 137.761C222.351 137.231 223.464 137.107 225.691 136.86L244.774 134.739C247 134.492 248.113 134.368 248.964 134.71C249.712 135.01 250.32 135.554 250.701 136.265C251.134 137.072 251.134 138.192 251.134 140.433V155.633C251.134 157.873 251.134 158.993 250.701 159.897C250.32 160.692 249.712 161.371 248.964 161.838C248.113 162.368 247 162.492 244.774 162.739L225.691 164.86C223.464 165.107 222.351 165.231 221.501 164.889C220.753 164.589 220.145 164.044 219.763 163.334C219.33 162.527 219.33 161.407 219.33 159.166V143.966Z" fill="#0066FF"/>
<path opacity="0.35" fill-rule="evenodd" clip-rule="evenodd" d="M230.95 146.675C230.728 146.7 230.511 146.799 230.336 146.957L225.907 150.949L224.68 149.513L229.108 145.521C229.634 145.047 230.282 144.749 230.95 144.675L234.382 144.294C235.197 144.203 235.976 144.452 236.538 144.983L240.889 149.084L245.825 152.869L244.518 154.521L239.514 150.684L235.101 146.523C234.913 146.347 234.653 146.264 234.382 146.294L230.95 146.675Z" fill="white"/>
<path fill-rule="evenodd" clip-rule="evenodd" d="M245.89 143.306L237.197 153.431C236.137 154.666 234.407 154.983 233.199 154.163L230.877 152.586C230.516 152.341 230.009 152.397 229.649 152.722L225.907 156.095L224.68 154.658L228.421 151.286C229.502 150.311 231.024 150.142 232.105 150.876L234.427 152.454C234.83 152.727 235.406 152.621 235.76 152.21L244.452 142.084L245.89 143.306Z" fill="white"/>
<path opacity="0.35" d="M224.982 159L223.491 160.666M222 162.331L223.491 160.666M223.491 160.666L222 159.331M223.491 160.666L224.982 162" stroke="white"/>
<g style="mix-blend-mode:overlay" opacity="0.25">
<rect x="205" y="121" width="56" height="56" fill="url(#paint1_linear_50_1764)"/>
</g>
</g>
</g>
<g clip-path="url(#clip2_50_1764)">
<mask id="mask2_50_1764" style="mask-type:alpha" maskUnits="userSpaceOnUse" x="238" y="63" width="56" height="56">
<circle cx="266" cy="91" r="28" fill="black"/>
</mask>
<g mask="url(#mask2_50_1764)">
<g filter="url(#filter2_dd_50_1764)">
<rect x="238" y="63" width="56" height="56" fill="#F22222"/>
<rect x="238" y="63" width="56" height="56" fill="white" fill-opacity="0.6" style="mix-blend-mode:hard-light"/>
</g>
<path fill-rule="evenodd" clip-rule="evenodd" d="M248.694 81.0549C248.944 80.3788 249.284 79.8004 249.747 79.2836L249.747 79.2836L249.747 79.2836C251.493 77.3322 254.304 77.0198 259.927 76.3951L267.878 75.5117C271.618 75.0961 274.114 74.8187 275.881 75.14C276.469 75.2471 276.977 75.4207 277.423 75.6778L277.428 75.681L281.75 78.1764L281.753 78.1778C281.98 78.3088 282.191 78.4614 282.388 78.6379C284.134 80.2012 284.134 83.0296 284.134 88.6865L284.134 92.6865C284.134 98.3433 284.134 101.172 282.388 103.123C280.641 105.075 277.83 105.387 272.208 106.012L264.257 106.895C259.269 107.449 256.494 107.758 254.712 106.729L254.711 106.728L250.382 104.229L250.382 104.229C250.155 104.098 249.944 103.945 249.747 103.769C248.109 102.303 248.007 99.7258 248 94.7482C248 94.4164 248 94.0739 248 93.7203V89.7203C248 89.7203 248 89.7203 248 89.7203C248 85.5616 248 82.9316 248.694 81.0549Z" fill="#E93131"/>
<path fill-rule="evenodd" clip-rule="evenodd" d="M248.694 81.0549C248.944 80.3788 249.284 79.8004 249.747 79.2836L249.747 79.2836L249.747 79.2836C251.493 77.3322 254.304 77.0198 259.927 76.3951L267.878 75.5117C271.618 75.0961 274.114 74.8187 275.881 75.14C276.469 75.2471 276.977 75.4207 277.423 75.6778L277.428 75.681L281.75 78.1764L281.753 78.1778C281.98 78.3088 282.191 78.4614 282.388 78.6379C284.134 80.2012 284.134 83.0296 284.134 88.6865L284.134 92.6865C284.134 98.3433 284.134 101.172 282.388 103.123C280.641 105.075 277.83 105.387 272.208 106.012L264.257 106.895C259.269 107.449 256.494 107.758 254.712 106.729L254.711 106.728L250.382 104.229L250.382 104.229C250.155 104.098 249.944 103.945 249.747 103.769C248.109 102.303 248.007 99.7258 248 94.7482C248 94.4164 248 94.0739 248 93.7203V89.7203C248 89.7203 248 89.7203 248 89.7203C248 85.5616 248 82.9316 248.694 81.0549Z" fill="black" fill-opacity="0.85"/>
<path d="M252.33 92.2203C252.33 86.5635 252.33 83.735 254.077 81.7836C255.823 79.8322 258.634 79.5198 264.257 78.8951L272.208 78.0117C277.83 77.387 280.641 77.0746 282.388 78.6379C284.134 80.2012 284.134 83.0296 284.134 88.6865V92.6865C284.134 98.3434 284.134 101.172 282.388 103.123C280.641 105.075 277.83 105.387 272.208 106.012L264.257 106.895C258.634 107.52 255.823 107.832 254.077 106.269C252.33 104.706 252.33 101.877 252.33 96.2203V92.2203Z" fill="#E93131"/>
<path d="M275.94 84.097L273.952 84.3179V86.4362C273.643 86.5376 273.351 86.6656 273.075 86.8202C272.475 87.1532 272 87.5805 271.651 88.1023C271.305 88.6237 271.132 89.2058 271.132 89.8485C271.132 90.6298 271.39 91.2279 271.905 91.643C272.424 92.0541 273.13 92.3254 274.023 92.457L275.256 92.6396C275.644 92.6959 275.983 92.7719 276.273 92.8676C276.566 92.9593 276.793 93.0903 276.956 93.2604C277.118 93.427 277.201 93.6522 277.204 93.9359C277.201 94.2488 277.107 94.5326 276.924 94.7874C276.74 95.0386 276.486 95.2479 276.161 95.4154C275.84 95.5789 275.466 95.6844 275.039 95.7319C274.63 95.7774 274.259 95.7564 273.927 95.669C273.599 95.5812 273.333 95.4226 273.128 95.1932C272.923 94.9638 272.807 94.6607 272.779 94.2838L270.846 94.4986C270.874 95.2198 271.061 95.8134 271.407 96.2792C271.757 96.7447 272.24 97.0745 272.858 97.2686C273.191 97.3724 273.555 97.435 273.952 97.4563V99.3179L275.94 99.097V97.2683C276.437 97.1509 276.882 96.9839 277.273 96.7674C277.887 96.4257 278.357 95.9954 278.681 95.4763C279.006 94.9537 279.169 94.3729 279.169 93.7336C279.169 93.2613 279.08 92.8592 278.904 92.5273C278.727 92.1953 278.487 91.9219 278.184 91.7071C277.884 91.4918 277.543 91.3237 277.162 91.2027C276.784 91.0813 276.391 90.9954 275.981 90.945L274.965 90.8023C274.743 90.7737 274.522 90.7325 274.303 90.6787C274.084 90.6249 273.885 90.5512 273.705 90.4575C273.525 90.3604 273.382 90.2342 273.276 90.079C273.174 89.9235 273.123 89.7321 273.123 89.5048C273.126 89.231 273.206 88.9789 273.361 88.7486C273.516 88.5183 273.74 88.3247 274.033 88.1679C274.326 88.011 274.677 87.9099 275.087 87.8644C275.669 87.7997 276.142 87.8767 276.506 88.0956C276.873 88.314 277.081 88.6531 277.13 89.1128L279.02 88.9028C279.01 88.2896 278.839 87.7653 278.507 87.3299C278.175 86.8909 277.718 86.5706 277.136 86.369C276.774 86.2406 276.376 86.169 275.94 86.1541V84.097Z" fill="white"/>
<path d="M267.984 92.861C268.315 92.6553 268.315 92.2331 267.984 92.101L259.039 88.5343C258.708 88.4022 258.293 88.6594 258.293 88.9972V98.1182C258.293 98.456 258.708 98.6212 259.039 98.4154L267.984 92.861Z" fill="white"/>
<g style="mix-blend-mode:overlay" opacity="0.25">
<rect x="238" y="63" width="56" height="56" fill="url(#paint2_linear_50_1764)"/>
</g>
</g>
</g>
<g clip-path="url(#clip3_50_1764)">
<mask id="mask3_50_1764" style="mask-type:alpha" maskUnits="userSpaceOnUse" x="172" y="63" width="56" height="56">
<circle cx="200" cy="91" r="28" fill="black"/>
</mask>
<g mask="url(#mask3_50_1764)">
<g filter="url(#filter3_dd_50_1764)">
<rect x="172" y="63" width="56" height="56" fill="#FF9900"/>
<rect x="172" y="63" width="56" height="56" fill="white" fill-opacity="0.6" style="mix-blend-mode:hard-light"/>
</g>
<path fill-rule="evenodd" clip-rule="evenodd" d="M211.774 76.7393L211.774 76.7393L192.691 78.8595L192.691 78.8596C190.465 79.1069 189.351 79.2306 188.501 79.7611L188.501 79.7611C187.753 80.2277 187.145 80.9072 186.763 81.7022L182.433 79.2022C182.814 78.4072 183.423 77.7277 184.171 77.2611L184.171 77.2611C185.021 76.7306 186.134 76.6069 188.361 76.3596L188.361 76.3595L207.443 74.2393L207.443 74.2393C209.67 73.9919 210.783 73.8682 211.634 74.2097L215.964 76.7097C215.113 76.3682 214 76.4919 211.774 76.7393ZM188.061 106.676C188.202 106.757 188.348 106.828 188.501 106.889L187.658 106.402C187.292 106.115 186.988 105.753 186.763 105.334L186.763 105.334C186.33 104.527 186.33 103.407 186.33 101.166V85.9663C186.33 83.7261 186.33 82.606 186.763 81.7022L182.433 79.2022C182 80.106 182 81.2261 182 83.4663V98.6663C182 100.907 182 102.027 182.433 102.834L182.433 102.834C182.737 103.4 183.184 103.86 183.731 104.176L188.052 106.67L188.06 106.675L188.061 106.676Z" fill="#FFA100"/>
<path fill-rule="evenodd" clip-rule="evenodd" d="M211.774 76.7393L211.774 76.7393L192.691 78.8595L192.691 78.8596C190.465 79.1069 189.351 79.2306 188.501 79.7611L188.501 79.7611C187.753 80.2277 187.145 80.9072 186.763 81.7022L182.433 79.2022C182.814 78.4072 183.423 77.7277 184.171 77.2611L184.171 77.2611C185.021 76.7306 186.134 76.6069 188.361 76.3596L188.361 76.3595L207.443 74.2393L207.443 74.2393C209.67 73.9919 210.783 73.8682 211.634 74.2097L215.964 76.7097C215.113 76.3682 214 76.4919 211.774 76.7393ZM188.061 106.676C188.202 106.757 188.348 106.828 188.501 106.889L187.658 106.402C187.292 106.115 186.988 105.753 186.763 105.334L186.763 105.334C186.33 104.527 186.33 103.407 186.33 101.166V85.9663C186.33 83.7261 186.33 82.606 186.763 81.7022L182.433 79.2022C182 80.106 182 81.2261 182 83.4663V98.6663C182 100.907 182 102.027 182.433 102.834L182.433 102.834C182.737 103.4 183.184 103.86 183.731 104.176L188.052 106.67L188.06 106.675L188.061 106.676Z" fill="black" fill-opacity="0.85"/>
<path d="M186.33 85.9663C186.33 83.7261 186.33 82.606 186.763 81.7022C187.145 80.9072 187.753 80.2277 188.501 79.7611C189.351 79.2307 190.464 79.107 192.691 78.8596L211.774 76.7393C214 76.4919 215.113 76.3682 215.964 76.7097C216.712 77.0101 217.32 77.5544 217.701 78.2647C218.134 79.0722 218.134 80.1923 218.134 82.4325V97.6325C218.134 99.8728 218.134 100.993 217.701 101.897C217.32 102.692 216.712 103.371 215.964 103.838C215.113 104.368 214 104.492 211.774 104.739L192.691 106.86C190.464 107.107 189.351 107.231 188.501 106.889C187.753 106.589 187.145 106.044 186.763 105.334C186.33 104.527 186.33 103.407 186.33 101.166V85.9663Z" fill="#FF9900"/>
<path d="M193.287 85.2937C193.287 85.0175 193.51 84.7688 193.784 84.7383L197.76 84.2964C198.034 84.2659 198.257 84.4651 198.257 84.7413V100.743C198.257 101.019 198.034 101.268 197.76 101.298L193.784 101.74C193.51 101.771 193.287 101.572 193.287 101.295V85.2937Z" fill="black" fill-opacity="0.7"/>
<path d="M193.287 92.7933L198.257 92.2412V100.741C198.257 101.017 198.034 101.266 197.76 101.296L193.784 101.738C193.51 101.769 193.287 101.569 193.287 101.293V92.7933Z" fill="#FF9D0A"/>
<path d="M193.287 92.7933L198.257 92.2412V100.741C198.257 101.017 198.034 101.266 197.76 101.296L193.784 101.738C193.51 101.769 193.287 101.569 193.287 101.293V92.7933Z" fill="white" fill-opacity="0.8" style="mix-blend-mode:overlay"/>
<path d="M200.245 84.5203C200.245 84.2442 200.467 83.9956 200.741 83.9651L204.717 83.5234C204.991 83.4929 205.214 83.692 205.214 83.9682V99.9692C205.214 100.245 204.991 100.494 204.717 100.524L200.741 100.966C200.467 100.997 200.245 100.798 200.245 100.521V84.5203Z" fill="black" fill-opacity="0.7"/>
<path d="M200.245 87.0203L205.214 86.4682V99.9682C205.214 100.244 204.991 100.493 204.717 100.523L200.741 100.965C200.467 100.996 200.245 100.796 200.245 100.52V87.0203Z" fill="#FF9D0A"/>
<path d="M200.245 87.0203L205.214 86.4682V99.9682C205.214 100.244 204.991 100.493 204.717 100.523L200.741 100.965C200.467 100.996 200.245 100.796 200.245 100.52V87.0203Z" fill="white" fill-opacity="0.8" style="mix-blend-mode:overlay"/>
<path fill-rule="evenodd" clip-rule="evenodd" d="M205.214 88.4682L200.245 89.0203V87.0203L205.214 86.4682V88.4682Z" fill="white"/>
<path d="M206.659 87.495C206.474 87.4238 206.474 87.159 206.659 87.0467L211.813 83.9131C211.978 83.8127 212.171 83.9121 212.171 84.0974V89.2194C212.171 89.4047 211.978 89.5471 211.813 89.4834L206.659 87.495Z" fill="white"/>
<g style="mix-blend-mode:overlay" opacity="0.25">
<rect x="172" y="63" width="56" height="56" fill="url(#paint3_linear_50_1764)"/>
</g>
</g>
</g>
<g clip-path="url(#clip4_50_1764)">
<mask id="mask4_50_1764" style="mask-type:alpha" maskUnits="userSpaceOnUse" x="106" y="63" width="56" height="56">
<circle cx="134" cy="91" r="28" fill="black"/>
</mask>
<g mask="url(#mask4_50_1764)">
<g filter="url(#filter4_dd_50_1764)">
<rect x="106" y="63" width="56" height="56" fill="#16AD40"/>
<rect x="106" y="63" width="56" height="56" fill="white" fill-opacity="0.6" style="mix-blend-mode:hard-light"/>
</g>
<path d="M116 83.4663C116 83.1863 116 82.9238 116.001 82.677C116.002 82.2715 116.006 81.9085 116.016 81.5802C116.041 80.7095 116.11 80.0824 116.29 79.553C116.332 79.4315 116.379 79.3152 116.433 79.2022C116.814 78.4072 117.423 77.7277 118.171 77.2611C119.021 76.7307 120.134 76.6069 122.361 76.3596L141.443 74.2393C142.7 74.0996 143.602 73.9994 144.303 74C144.843 74.0005 145.263 74.0609 145.634 74.2097C145.786 74.2709 145.933 74.3423 146.073 74.4232L146.087 74.4313L146.075 74.4241L150.403 76.9232C150.95 77.2389 151.398 77.6992 151.701 78.2647C152.134 79.0722 152.134 80.1923 152.134 82.4325L152.134 97.6325C152.134 99.8727 152.134 100.993 151.701 101.897C151.32 102.692 150.712 103.371 149.964 103.838C149.113 104.368 148 104.492 145.773 104.739L126.691 106.86C124.465 107.107 123.351 107.231 122.501 106.889C122.348 106.828 122.201 106.757 122.061 106.676L117.731 104.176L117.753 104.188L117.742 104.182L117.731 104.176C117.184 103.86 116.737 103.4 116.433 102.834C116.325 102.632 116.244 102.411 116.183 102.157C116 101.397 116 100.346 116 98.6663V83.4663Z" fill="#20AA49"/>
<path d="M116 83.4663C116 83.1863 116 82.9238 116.001 82.677C116.002 82.2715 116.006 81.9085 116.016 81.5802C116.041 80.7095 116.11 80.0824 116.29 79.553C116.332 79.4315 116.379 79.3152 116.433 79.2022C116.814 78.4072 117.423 77.7277 118.171 77.2611C119.021 76.7307 120.134 76.6069 122.361 76.3596L141.443 74.2393C142.7 74.0996 143.602 73.9994 144.303 74C144.843 74.0005 145.263 74.0609 145.634 74.2097C145.786 74.2709 145.933 74.3423 146.073 74.4232L146.087 74.4313L146.075 74.4241L150.403 76.9232C150.95 77.2389 151.398 77.6992 151.701 78.2647C152.134 79.0722 152.134 80.1923 152.134 82.4325L152.134 97.6325C152.134 99.8727 152.134 100.993 151.701 101.897C151.32 102.692 150.712 103.371 149.964 103.838C149.113 104.368 148 104.492 145.773 104.739L126.691 106.86C124.465 107.107 123.351 107.231 122.501 106.889C122.348 106.828 122.201 106.757 122.061 106.676L117.731 104.176L117.753 104.188L117.742 104.182L117.731 104.176C117.184 103.86 116.737 103.4 116.433 102.834C116.325 102.632 116.244 102.411 116.183 102.157C116 101.397 116 100.346 116 98.6663V83.4663Z" fill="black" fill-opacity="0.85"/>
<path d="M120.33 85.9663C120.33 83.7261 120.33 82.606 120.763 81.7022C121.145 80.9072 121.753 80.2277 122.501 79.7611C123.351 79.2307 124.464 79.107 126.691 78.8596L145.774 76.7393C148 76.4919 149.113 76.3682 149.964 76.7097C150.712 77.0101 151.32 77.5544 151.701 78.2647C152.134 79.0722 152.134 80.1923 152.134 82.4325V97.6325C152.134 99.8727 152.134 100.993 151.701 101.897C151.32 102.692 150.712 103.371 149.964 103.838C149.113 104.368 148 104.492 145.774 104.739L126.691 106.86C124.464 107.107 123.351 107.231 122.501 106.889C121.753 106.589 121.145 106.044 120.763 105.334C120.33 104.527 120.33 103.407 120.33 101.166V85.9663Z" fill="#1C9A3F"/>
<path d="M147.165 90.5846C147.165 94.7268 143.828 98.4555 139.711 98.9129V100.413C144.651 99.864 148.656 95.3896 148.656 90.419C148.656 85.4484 144.651 81.864 139.711 82.4129V83.9129C143.828 83.4555 147.165 86.4425 147.165 90.5846Z" fill="white"/>
<path d="M145.674 90.7503C145.674 94.064 143.004 97.0469 139.711 97.4129V95.9129C142.181 95.6384 144.183 93.4012 144.183 90.9159C144.183 88.4307 142.181 86.6384 139.711 86.9129V85.4129C143.004 85.0469 145.674 87.4366 145.674 90.7503Z" fill="white"/>
<path d="M142.692 91.0816C142.692 92.7384 141.357 94.2299 139.711 94.4129V92.9129C140.534 92.8214 141.202 92.0757 141.202 91.2472C141.202 90.4188 140.534 89.8214 139.711 89.9129V88.4129C141.357 88.2299 142.692 89.4247 142.692 91.0816Z" fill="white"/>
<path d="M136.729 94.8662C136.729 95.8676 135.862 96.9257 134.583 97.3755C133.107 97.8971 131.647 97.4123 131.322 96.2922C130.997 95.1721 131.932 93.8462 133.408 93.3246C133.994 93.1165 134.573 93.0734 135.085 93.1619V88.9827L129.21 91.4625V96.7268C129.21 96.7299 129.211 96.7328 129.213 96.7357C129.215 96.7386 129.216 96.7415 129.216 96.7446C129.216 98.2144 128.329 99.2903 127.134 99.7119C125.657 100.233 124.198 99.7486 123.873 98.6285C123.548 97.5084 124.482 96.1825 125.959 95.6609C126.464 95.4804 126.963 95.4308 127.422 95.4726V89.3309C127.422 89.0611 127.599 88.7995 127.87 88.67L135.762 84.8984C136.224 84.6762 136.729 84.9391 136.729 85.401V94.8662Z" fill="white"/>
<g style="mix-blend-mode:overlay" opacity="0.25">
<rect x="106" y="63" width="56" height="56" fill="url(#paint4_linear_50_1764)"/>
</g>
</g>
</g>
<defs>
<filter id="filter0_dd_50_1764" x="135" y="119" width="64" height="64" filterUnits="userSpaceOnUse" color-interpolation-filters="sRGB">
<feFlood flood-opacity="0" result="BackgroundImageFix"/>
<feColorMatrix in="SourceAlpha" type="matrix" values="0 0 0 0 0 0 0 0 0 0 0 0 0 0 0 0 0 0 127 0" result="hardAlpha"/>
<feMorphology radius="1" operator="erode" in="SourceAlpha" result="effect1_dropShadow_50_1764"/>
<feOffset dy="1"/>
<feGaussianBlur stdDeviation="1"/>
<feComposite in2="hardAlpha" operator="out"/>
<feColorMatrix type="matrix" values="0 0 0 0 0 0 0 0 0 0 0 0 0 0 0 0 0 0 0.5 0"/>
<feBlend mode="normal" in2="BackgroundImageFix" result="effect1_dropShadow_50_1764"/>
<feColorMatrix in="SourceAlpha" type="matrix" values="0 0 0 0 0 0 0 0 0 0 0 0 0 0 0 0 0 0 127 0" result="hardAlpha"/>
<feOffset dy="2"/>
<feGaussianBlur stdDeviation="2"/>
<feComposite in2="hardAlpha" operator="out"/>
<feColorMatrix type="matrix" values="0 0 0 0 0.372549 0 0 0 0 0.101961 0 0 0 0 0.666667 0 0 0 0.08 0"/>
<feBlend mode="normal" in2="effect1_dropShadow_50_1764" result="effect2_dropShadow_50_1764"/>
<feBlend mode="normal" in="SourceGraphic" in2="effect2_dropShadow_50_1764" result="shape"/>
</filter>
<filter id="filter1_dd_50_1764" x="201" y="119" width="64" height="64" filterUnits="userSpaceOnUse" color-interpolation-filters="sRGB">
<feFlood flood-opacity="0" result="BackgroundImageFix"/>
<feColorMatrix in="SourceAlpha" type="matrix" values="0 0 0 0 0 0 0 0 0 0 0 0 0 0 0 0 0 0 127 0" result="hardAlpha"/>
<feMorphology radius="1" operator="erode" in="SourceAlpha" result="effect1_dropShadow_50_1764"/>
<feOffset dy="1"/>
<feGaussianBlur stdDeviation="1"/>
<feComposite in2="hardAlpha" operator="out"/>
<feColorMatrix type="matrix" values="0 0 0 0 0 0 0 0 0 0 0 0 0 0 0 0 0 0 0.5 0"/>
<feBlend mode="normal" in2="BackgroundImageFix" result="effect1_dropShadow_50_1764"/>
<feColorMatrix in="SourceAlpha" type="matrix" values="0 0 0 0 0 0 0 0 0 0 0 0 0 0 0 0 0 0 127 0" result="hardAlpha"/>
<feOffset dy="2"/>
<feGaussianBlur stdDeviation="2"/>
<feComposite in2="hardAlpha" operator="out"/>
<feColorMatrix type="matrix" values="0 0 0 0 0.372549 0 0 0 0 0.101961 0 0 0 0 0.666667 0 0 0 0.08 0"/>
<feBlend mode="normal" in2="effect1_dropShadow_50_1764" result="effect2_dropShadow_50_1764"/>
<feBlend mode="normal" in="SourceGraphic" in2="effect2_dropShadow_50_1764" result="shape"/>
</filter>
<filter id="filter2_dd_50_1764" x="234" y="61" width="64" height="64" filterUnits="userSpaceOnUse" color-interpolation-filters="sRGB">
<feFlood flood-opacity="0" result="BackgroundImageFix"/>
<feColorMatrix in="SourceAlpha" type="matrix" values="0 0 0 0 0 0 0 0 0 0 0 0 0 0 0 0 0 0 127 0" result="hardAlpha"/>
<feMorphology radius="1" operator="erode" in="SourceAlpha" result="effect1_dropShadow_50_1764"/>
<feOffset dy="1"/>
<feGaussianBlur stdDeviation="1"/>
<feComposite in2="hardAlpha" operator="out"/>
<feColorMatrix type="matrix" values="0 0 0 0 0 0 0 0 0 0 0 0 0 0 0 0 0 0 0.5 0"/>
<feBlend mode="normal" in2="BackgroundImageFix" result="effect1_dropShadow_50_1764"/>
<feColorMatrix in="SourceAlpha" type="matrix" values="0 0 0 0 0 0 0 0 0 0 0 0 0 0 0 0 0 0 127 0" result="hardAlpha"/>
<feOffset dy="2"/>
<feGaussianBlur stdDeviation="2"/>
<feComposite in2="hardAlpha" operator="out"/>
<feColorMatrix type="matrix" values="0 0 0 0 0.372549 0 0 0 0 0.101961 0 0 0 0 0.666667 0 0 0 0.08 0"/>
<feBlend mode="normal" in2="effect1_dropShadow_50_1764" result="effect2_dropShadow_50_1764"/>
<feBlend mode="normal" in="SourceGraphic" in2="effect2_dropShadow_50_1764" result="shape"/>
</filter>
<filter id="filter3_dd_50_1764" x="168" y="61" width="64" height="64" filterUnits="userSpaceOnUse" color-interpolation-filters="sRGB">
<feFlood flood-opacity="0" result="BackgroundImageFix"/>
<feColorMatrix in="SourceAlpha" type="matrix" values="0 0 0 0 0 0 0 0 0 0 0 0 0 0 0 0 0 0 127 0" result="hardAlpha"/>
<feMorphology radius="1" operator="erode" in="SourceAlpha" result="effect1_dropShadow_50_1764"/>
<feOffset dy="1"/>
<feGaussianBlur stdDeviation="1"/>
<feComposite in2="hardAlpha" operator="out"/>
<feColorMatrix type="matrix" values="0 0 0 0 0 0 0 0 0 0 0 0 0 0 0 0 0 0 0.5 0"/>
<feBlend mode="normal" in2="BackgroundImageFix" result="effect1_dropShadow_50_1764"/>
<feColorMatrix in="SourceAlpha" type="matrix" values="0 0 0 0 0 0 0 0 0 0 0 0 0 0 0 0 0 0 127 0" result="hardAlpha"/>
<feOffset dy="2"/>
<feGaussianBlur stdDeviation="2"/>
<feComposite in2="hardAlpha" operator="out"/>
<feColorMatrix type="matrix" values="0 0 0 0 0.372549 0 0 0 0 0.101961 0 0 0 0 0.666667 0 0 0 0.08 0"/>
<feBlend mode="normal" in2="effect1_dropShadow_50_1764" result="effect2_dropShadow_50_1764"/>
<feBlend mode="normal" in="SourceGraphic" in2="effect2_dropShadow_50_1764" result="shape"/>
</filter>
<filter id="filter4_dd_50_1764" x="102" y="61" width="64" height="64" filterUnits="userSpaceOnUse" color-interpolation-filters="sRGB">
<feFlood flood-opacity="0" result="BackgroundImageFix"/>
<feColorMatrix in="SourceAlpha" type="matrix" values="0 0 0 0 0 0 0 0 0 0 0 0 0 0 0 0 0 0 127 0" result="hardAlpha"/>
<feMorphology radius="1" operator="erode" in="SourceAlpha" result="effect1_dropShadow_50_1764"/>
<feOffset dy="1"/>
<feGaussianBlur stdDeviation="1"/>
<feComposite in2="hardAlpha" operator="out"/>
<feColorMatrix type="matrix" values="0 0 0 0 0 0 0 0 0 0 0 0 0 0 0 0 0 0 0.5 0"/>
<feBlend mode="normal" in2="BackgroundImageFix" result="effect1_dropShadow_50_1764"/>
<feColorMatrix in="SourceAlpha" type="matrix" values="0 0 0 0 0 0 0 0 0 0 0 0 0 0 0 0 0 0 127 0" result="hardAlpha"/>
<feOffset dy="2"/>
<feGaussianBlur stdDeviation="2"/>
<feComposite in2="hardAlpha" operator="out"/>
<feColorMatrix type="matrix" values="0 0 0 0 0.372549 0 0 0 0 0.101961 0 0 0 0 0.666667 0 0 0 0.08 0"/>
<feBlend mode="normal" in2="effect1_dropShadow_50_1764" result="effect2_dropShadow_50_1764"/>
<feBlend mode="normal" in="SourceGraphic" in2="effect2_dropShadow_50_1764" result="shape"/>
</filter>
<linearGradient id="paint0_linear_50_1764" x1="139" y1="121" x2="195" y2="177" gradientUnits="userSpaceOnUse">
<stop stop-color="white"/>
<stop offset="1" stop-color="white" stop-opacity="0"/>
</linearGradient>
<linearGradient id="paint1_linear_50_1764" x1="205" y1="121" x2="261" y2="177" gradientUnits="userSpaceOnUse">
<stop stop-color="white"/>
<stop offset="1" stop-color="white" stop-opacity="0"/>
</linearGradient>
<linearGradient id="paint2_linear_50_1764" x1="238" y1="63" x2="294" y2="119" gradientUnits="userSpaceOnUse">
<stop stop-color="white"/>
<stop offset="1" stop-color="white" stop-opacity="0"/>
</linearGradient>
<linearGradient id="paint3_linear_50_1764" x1="172" y1="63" x2="228" y2="119" gradientUnits="userSpaceOnUse">
<stop stop-color="white"/>
<stop offset="1" stop-color="white" stop-opacity="0"/>
</linearGradient>
<linearGradient id="paint4_linear_50_1764" x1="106" y1="63" x2="162" y2="119" gradientUnits="userSpaceOnUse">
<stop stop-color="white"/>
<stop offset="1" stop-color="white" stop-opacity="0"/>
</linearGradient>
<clipPath id="clip0_50_1764">
<rect x="139" y="121" width="56" height="56" fill="white"/>
</clipPath>
<clipPath id="clip1_50_1764">
<rect x="205" y="121" width="56" height="56" fill="white"/>
</clipPath>
<clipPath id="clip2_50_1764">
<rect x="238" y="63" width="56" height="56" fill="white"/>
</clipPath>
<clipPath id="clip3_50_1764">
<rect x="172" y="63" width="56" height="56" fill="white"/>
</clipPath>
<clipPath id="clip4_50_1764">
<rect x="106" y="63" width="56" height="56" fill="white"/>
</clipPath>
</defs>
</svg>
