<svg width="488" height="200" xmlns="http://www.w3.org/2000/svg"><path d="M64 16c0-7.542 0-11.314-2.343-13.657S55.543 0 48 0H16C8.458 0 4.686 0 2.343 2.343S0 8.458 0 16c0 7.543 0 11.314 2.343 13.657S8.458 32 16 32h32c7.542 0 11.314 0 13.657-2.343S64 23.543 64 16zM64 70c0-7.542 0-11.314-2.343-13.657S55.543 54 48 54H16c-7.542 0-11.314 0-13.657 2.343S0 62.457 0 70v114c0 7.542 0 11.314 2.343 13.657S8.458 200 16 200h32c7.542 0 11.314 0 13.657-2.343S64 191.542 64 184V70zM88 15.581V72c0 7.543 0 11.314 2.343 13.657S96.457 88 104 88h32c7.542 0 11.314 0 13.657-2.343S152 79.543 152 72V46.182c0-.519 0-.778.365-1.945.143-.456.169-.574.214-.683.046-.11.111-.212.332-.635.567-1.084 4.627-5.143 12.746-13.262C168 27.314 168 23.543 168 16c0-7.542 0-11.314-2.343-13.657S159.542 0 152 0h-48.419c-7.136 0-10.704 0-13 2.116a8.013 8.013 0 00-.466.464C88 4.877 88 8.445 88 15.581zM88 127.581V184c0 7.542 0 11.314 2.343 13.657S96.457 200 104 200h32c7.542 0 11.314 0 13.657-2.343S152 191.542 152 184v-25.818c0-.519 0-.778.365-1.945.143-.456.169-.573.214-.683.046-.11.111-.212.332-.635.567-1.084 4.627-5.143 12.746-13.262C168 139.314 168 135.542 168 128s0-11.314-2.343-13.657S159.542 112 152 112h-48.419c-7.136 0-10.704 0-13 2.116a7.915 7.915 0 00-.466.464C88 116.877 88 120.445 88 127.581zM184 16c0-7.542 0-11.314 2.343-13.657S192.458 0 200 0h32c7.542 0 11.314 0 13.657 2.343S248 8.458 248 16v168c0 7.542 0 11.314-2.343 13.657S239.542 200 232 200h-32c-7.542 0-11.314 0-13.657-2.343S184 191.542 184 184V16zM272 16c0-7.542 0-11.314 2.343-13.657S280.458 0 288 0h184c7.542 0 11.314 0 13.657 2.343S488 8.458 488 16v56c0 7.543 0 11.314-2.343 13.657S479.542 88 472 88h-32c-7.542 0-11.314 0-13.657-2.343S424 79.543 424 72V38a6 6 0 10-12 0v34c0 7.543 0 11.314-2.343 13.657S403.542 88 396 88h-32c-7.542 0-11.314 0-13.657-2.343S348 79.543 348 72V38a6 6 0 10-12 0v34c0 7.543 0 11.314-2.343 13.657S327.542 88 320 88h-32c-7.542 0-11.314 0-13.657-2.343S272 79.543 272 72V16zM272 128c0-7.542 0-11.314 2.343-13.657S280.458 112 288 112h184c7.542 0 11.314 0 13.657 2.343S488 120.458 488 128v56c0 7.542 0 11.314-2.343 13.657S479.542 200 472 200h-32c-7.542 0-11.314 0-13.657-2.343S424 191.542 424 184v-34a6 6 0 10-12 0v34c0 7.542 0 11.314-2.343 13.657S403.542 200 396 200h-32c-7.542 0-11.314 0-13.657-2.343S348 191.542 348 184v-34a6 6 0 10-12 0v34c0 7.542 0 11.314-2.343 13.657S327.542 200 320 200h-32c-7.542 0-11.314 0-13.657-2.343S272 191.542 272 184v-56z" /></svg>