<svg width="366" height="150" xmlns="http://www.w3.org/2000/svg"><path d="M48 12c0-5.657 0-8.485-1.757-10.243C44.485 0 41.657 0 36 0H12C6.343 0 3.515 0 1.757 1.757 0 3.515 0 6.343 0 12s0 8.485 1.757 10.243C3.515 24 6.343 24 12 24h24c5.657 0 8.485 0 10.243-1.757C48 20.485 48 17.657 48 12zM48 52.5c0-5.657 0-8.485-1.757-10.243C44.485 40.5 41.657 40.5 36 40.5H12c-5.657 0-8.485 0-10.243 1.757C0 44.015 0 46.843 0 52.5V138c0 5.657 0 8.485 1.757 10.243C3.515 150 6.343 150 12 150h24c5.657 0 8.485 0 10.243-1.757C48 146.485 48 143.657 48 138V52.5zM66 11.686V54c0 5.657 0 8.485 1.757 10.243C69.515 66 72.343 66 78 66h24c5.657 0 8.485 0 10.243-1.757C114 62.485 114 59.657 114 54V34.636c0-.389 0-.583.274-1.458.107-.342.126-.43.161-.513.034-.082.083-.158.248-.476.426-.812 3.47-3.857 9.56-9.946C126 20.485 126 17.657 126 12s0-8.485-1.757-10.243C122.485 0 119.657 0 114 0H77.686c-5.352 0-8.028 0-9.75 1.587a5.987 5.987 0 00-.35.348C66 3.658 66 6.334 66 11.686zM66 95.686V138c0 5.657 0 8.485 1.757 10.243C69.515 150 72.343 150 78 150h24c5.657 0 8.485 0 10.243-1.757C114 146.485 114 143.657 114 138v-19.364c0-.388 0-.583.274-1.458.107-.342.126-.43.161-.513.034-.082.083-.158.248-.476.426-.812 3.47-3.857 9.56-9.946C126 104.485 126 101.657 126 96s0-8.485-1.757-10.243C122.485 84 119.657 84 114 84H77.686c-5.352 0-8.028 0-9.75 1.587a5.973 5.973 0 00-.35.348C66 87.658 66 90.334 66 95.686zM138 12c0-5.657 0-8.485 1.757-10.243C141.515 0 144.343 0 150 0h24c5.657 0 8.485 0 10.243 1.757C186 3.515 186 6.343 186 12v126c0 5.657 0 8.485-1.757 10.243C182.485 150 179.657 150 174 150h-24c-5.657 0-8.485 0-10.243-1.757C138 146.485 138 143.657 138 138V12zM204 12c0-5.657 0-8.485 1.757-10.243C207.515 0 210.343 0 216 0h138c5.657 0 8.485 0 10.243 1.757C366 3.515 366 6.343 366 12v42c0 5.657 0 8.485-1.757 10.243C362.485 66 359.657 66 354 66h-24c-5.657 0-8.485 0-10.243-1.757C318 62.485 318 59.657 318 54V28.5a4.5 4.5 0 00-9 0V54c0 5.657 0 8.485-1.757 10.243C305.485 66 302.657 66 297 66h-24c-5.657 0-8.485 0-10.243-1.757C261 62.485 261 59.657 261 54V28.5a4.5 4.5 0 00-9 0V54c0 5.657 0 8.485-1.757 10.243C248.485 66 245.657 66 240 66h-24c-5.657 0-8.485 0-10.243-1.757C204 62.485 204 59.657 204 54V12zM204 96c0-5.657 0-8.485 1.757-10.243C207.515 84 210.343 84 216 84h138c5.657 0 8.485 0 10.243 1.757C366 87.515 366 90.343 366 96v42c0 5.657 0 8.485-1.757 10.243C362.485 150 359.657 150 354 150h-24c-5.657 0-8.485 0-10.243-1.757C318 146.485 318 143.657 318 138v-25.5a4.5 4.5 0 00-9 0V138c0 5.657 0 8.485-1.757 10.243C305.485 150 302.657 150 297 150h-24c-5.657 0-8.485 0-10.243-1.757C261 146.485 261 143.657 261 138v-25.5a4.5 4.5 0 00-9 0V138c0 5.657 0 8.485-1.757 10.243C248.485 150 245.657 150 240 150h-24c-5.657 0-8.485 0-10.243-1.757C204 146.485 204 143.657 204 138V96z" /></svg>